<?xml version="1.0" encoding="UTF-8" standalone="no"?>
<!-- Created with Inkscape (http://www.inkscape.org/) -->

<svg
   width="107.75884mm"
   height="107.759mm"
   viewBox="0 0 107.75884 107.759"
   version="1.1"
   id="svg5"
   sodipodi:docname="chickenCounterInk.svg"
   inkscape:version="1.2.2 (732a01da63, 2022-12-09)"
   inkscape:export-filename="..\..\OneDrive\Escritorio\favicon.svg"
   inkscape:export-xdpi="15.09"
   inkscape:export-ydpi="15.09"
   xmlns:inkscape="http://www.inkscape.org/namespaces/inkscape"
   xmlns:sodipodi="http://sodipodi.sourceforge.net/DTD/sodipodi-0.dtd"
   xmlns="http://www.w3.org/2000/svg"
   xmlns:svg="http://www.w3.org/2000/svg">
  <sodipodi:namedview
     id="namedview7"
     pagecolor="#ffffff"
     bordercolor="#000000"
     borderopacity="0.25"
     inkscape:showpageshadow="2"
     inkscape:pageopacity="0.0"
     inkscape:pagecheckerboard="0"
     inkscape:deskcolor="#d1d1d1"
     inkscape:document-units="mm"
     showgrid="false"
     inkscape:lockguides="true"
     showguides="true"
     inkscape:zoom="1.1133348"
     inkscape:cx="545.20886"
     inkscape:cy="95.209455"
     inkscape:window-width="1920"
     inkscape:window-height="1009"
     inkscape:window-x="-8"
     inkscape:window-y="-8"
     inkscape:window-maximized="1"
     inkscape:current-layer="svg5">
    <sodipodi:guide
       position="119.67564,240.90001"
       orientation="0,-1"
       id="guide9"
       inkscape:locked="true" />
    <sodipodi:guide
       position="56.190983,239.71119"
       orientation="1,0"
       id="guide113"
       inkscape:locked="true" />
    <sodipodi:guide
       position="112.21468,301.07484"
       orientation="1,0"
       id="guide381"
       inkscape:locked="true" />
    <sodipodi:guide
       position="125.37953,184.78533"
       orientation="0,-1"
       id="guide383"
       inkscape:locked="true" />
    <inkscape:grid
       type="xygrid"
       id="grid385"
       originx="-1.9742599"
       originy="-2.5208119" />
  </sodipodi:namedview>
  <defs
     id="defs2">
    <linearGradient
       id="linearGradient6930"
       inkscape:swatch="solid">
      <stop
         style="stop-color:#000000;stop-opacity:1;"
         offset="0"
         id="stop6928" />
    </linearGradient>
  </defs>
  <path
     style="display:inline;mix-blend-mode:normal;fill:#000000;fill-opacity:1;stroke:#000000;stroke-width:0.883188;stroke-linecap:round;stroke-dasharray:none;stroke-opacity:1"
     d="m 106.85792,19.315645 c -0.006,-0.522207 -0.12869,-1.1314 -0.78463,-1.442793 -2.20223,-1.065279 -8.784429,-4.075134 -16.541978,-5.976523 -4.376288,-1.072636 -9.154053,-1.67829 -13.593064,-1.9555167 -0.717194,-0.04479 -1.215874,0.4209087 -2.391681,0.8063437 -1.955493,0.641019 -4.377239,1.673851 -5.454842,1.668406 -0.37,-0.0019 4.253746,-1.236297 7.223489,-2.287605 1.270767,-0.4498637 1.931435,-0.5242007 2.12496,-1.3052831 0.15504,-0.6257627 0.02833,-1.3318204 -0.12019,-1.5113326 -0.264217,-0.3193302 -0.801582,0.2402192 -1.399236,0.2718802 -0.294963,0.01563 -6.0376,1.9917188 -9.089438,2.9237505 -1.572478,0.480235 -4.141895,1.32352 -4.749952,1.374462 -1.243606,0.4383 4.863084,-1.142682 10.948068,-3.3700001 C 74.036347,8.1428662 76.282688,7.7704535 77.368561,6.1281757 77.710649,5.0379851 77.125929,4.1871804 77.00672,4.3634995 75.686035,4.9976815 75.195014,5.5374901 73.165124,6.3610749 71.135224,7.1846604 66.436061,8.3822972 63.009687,9.2539566 60.44062,9.9075173 56.245383,10.857391 55.21917,11.003873 54.253186,11.141756 76.356554,7.5600835 77.82342,2.9099213 77.925198,2.0537579 77.635772,0.44388066 76.988589,0.44223366 70.585365,0.67517173 60.117545,3.9223477 54.398906,6.6848281 48.006274,9.2513866 41.565796,13.743836 38.004455,16.166569 c -3.56135,2.422734 -5.280058,3.290662 -7.762554,5.217284 -3.4743,2.696343 -7.347493,7.522915 -8.55752,9.406549 C 20.474355,32.674036 37.13973,0.85325783 25.081941,0.83060193 13.02414,0.80794523 4.3774814,18.920538 5.1860916,39.556538 c 0.4160396,10.61746 1.7945623,17.151674 5.2199344,27.083272 3.425372,9.931602 7.676418,16.431933 12.767387,21.174099 8.24046,7.675874 16.493866,9.509722 25.610415,11.947264 7.283107,1.947337 15.710635,1.978317 23.06061,2.302157 5.579387,0.24583 14.009875,-1.02731 20.854636,-2.916101 5.278499,-1.45659 7.779536,-1.665474 11.372266,-3.300161 0.84359,-0.38383 -0.24848,0.643742 2.33847,-1.504069 0,0 0.0674,-6.519377 0.14674,-10.261417 0.0793,-3.742041 0.19964,-12.192017 0.19964,-12.192017 0,0 -9.456134,9.665536 -15.365144,12.708819 -7.269122,3.743773 -15.44917,6.531208 -23.704394,6.309149 C 59.431058,90.685474 50.393562,88.127012 43.607459,83.1154 39.026306,79.732168 36.084036,74.330064 33.798225,69.126907 31.512414,63.923751 29.98217,57.465282 30.619259,51.543198 31.412003,44.174215 33.835308,37.047236 39.138143,31.005383 44.80372,24.550225 56.425893,20.98117 68.668316,20.208337 c 5.077313,-0.320517 14.756556,0.263742 21.396576,2.623214 9.370427,3.32969 13.012038,7.394805 16.783468,10.226348 -0.0158,-4.482167 0.0541,-9.261811 0.01,-13.742254 z"
     id="path7788"
     sodipodi:nodetypes="ccssscssssacscczacccczszzszssssaczcacazasssccc"
     inkscape:label="ChickenShadow" />
  <g
     inkscape:label="ChickenLogo"
     inkscape:groupmode="layer"
     id="layer1"
     transform="translate(-81.887259,-64.867188)"
     style="display:inline">
    <path
       style="display:inline;opacity:1;mix-blend-mode:normal;fill:#ffff00;fill-opacity:1;stroke:#000000;stroke-width:0.887819;stroke-linecap:round;stroke-dasharray:none;stroke-opacity:1"
       d="m 186.61578,96.13062 c 0,0 0.0541,-7.75631 0.01,-11.746595 -0.006,-0.527728 -0.1287,-1.14336 -0.78459,-1.458044 -2.20211,-1.076539 -8.78394,-4.118209 -16.54105,-6.039695 -4.37604,-1.083975 -9.15354,-1.69603 -13.5923,-1.976187 -0.71715,-0.04527 -1.21581,0.425357 -2.39155,0.814866 -1.95538,0.647796 -4.37699,1.691544 -5.45453,1.686042 -0.36998,-0.0019 4.2535,-1.249365 7.22308,-2.311785 1.2707,-0.454619 1.93133,-0.529742 2.12484,-1.319081 0.15503,-0.632377 0.0283,-1.345898 -0.12018,-1.527308 -0.26421,-0.322705 -0.80154,0.242759 -1.39916,0.274755 -0.29495,0.01579 -6.03726,2.012771 -9.08893,2.954655 -1.57239,0.48531 -4.14166,1.337509 -4.74968,1.38899 -1.24354,0.442933 4.86281,-1.154761 10.94745,-3.405623 1.00686,-0.372462 3.25308,-0.748812 4.33889,-2.408448 0.34207,-1.101715 -0.24262,-1.961512 -0.36182,-1.78333 -1.32061,0.640886 -1.8116,1.1864 -3.84138,2.01869 -2.02979,0.832291 -6.72868,2.042588 -10.15486,2.92346 -2.56893,0.660469 -6.76393,1.620384 -7.79008,1.768414 -0.96593,0.139341 21.13619,-3.480191 22.60297,-8.179506 0.10178,-0.865213 -0.18763,-2.492107 -0.83478,-2.493772 -5.48027,0.201482 -13.86762,2.785471 -19.81669,5.147157 -1.00151,0.397584 0.50818,-0.475343 -2.77172,1.161423 -3.2799,1.636766 -9.13379,4.360828 -13.42291,7.027233 -3.76047,2.337758 -7.36443,4.953014 -10.73274,7.827162 -1.91587,1.634797 -3.75664,3.453278 -5.35709,5.328208 -1.44889,1.697387 -2.62503,3.273301 -3.19994,4.17777 -1.20996,1.903544 15.45447,-30.253584 3.39737,-30.276479 -12.057116,-0.0229 -20.703288,18.28115 -19.894723,39.135278 0.416016,10.72968 1.794461,17.33297 5.219641,27.36954 3.425179,10.03659 7.089296,15.33559 12.766652,21.39792 5.27955,5.63755 11.93059,10.22283 19.07802,13.15025 9.33681,3.82414 19.72383,5.41434 29.81191,5.23933 7.25993,-0.12595 15.73249,-2.5912 21.31058,-4.5124 5.57809,-1.9212 10.10724,-4.30264 12.23142,-5.97992 0.59817,-0.47232 0.45437,-0.32902 1.15406,-0.96928 0.0618,-0.0565 0.091,-0.49589 0.099,-1.33654 0.0639,-6.71583 0.19151,-19.08916 0.19151,-19.08916 0,0 -7.19202,6.8465 -11.5884,8.98055 -8.30699,4.0323 -17.91173,7.01204 -26.8777,6.70664 -8.96597,-0.30541 -17.75285,-3.00119 -24.85887,-8.03515 -4.45748,-3.15772 -7.73044,-8.03744 -9.92729,-13.03885 -2.41989,-5.50918 -3.57995,-12.23067 -3.17879,-17.76957 0.57056,-7.87801 3.13737,-15.56165 8.51841,-20.754905 7.55047,-7.28698 20.76044,-9.833818 29.52851,-10.911172 8.76807,-1.077354 14.95183,0.435087 21.39537,2.350739 6.44354,1.915652 13.0113,5.632255 16.78253,8.493728 1.1e-4,7.9e-5 -4.6e-4,0 -4.6e-4,0 z"
       id="path1281"
       sodipodi:nodetypes="cscssscssssacscczacccszaasszszaaazssccazaasazccc"
       inkscape:label="chicken" />
    <path
       style="opacity:1;fill:#ff2d0a;fill-opacity:1;stroke:#000000;stroke-width:1;stroke-dasharray:none;stroke-opacity:1"
       d="m 92.805876,78.988175 -9.986111,6.936844 7.049709,4.070152 z"
       id="path3145"
       sodipodi:nodetypes="cccc"
       inkscape:label="peak" />
    <circle
       style="opacity:1;fill:#000000;fill-opacity:1;stroke:#000000;stroke-width:0.417;stroke-linecap:round;stroke-dasharray:none;stroke-opacity:1"
       id="path7471"
       cx="98.943649"
       cy="75.881462"
       r="1.6961133"
       inkscape:label="eye1" />
    <circle
       style="fill:#000000;fill-opacity:1;stroke:#000000;stroke-width:0.38154;stroke-linecap:round;stroke-dasharray:none;stroke-opacity:1"
       id="path7471-4"
       cx="92.342041"
       cy="75.462898"
       r="1.5518833"
       inkscape:label="eye2" />
  </g>
</svg>
